<svg width="33" height="40" viewBox="0 0 33 40" fill="none" xmlns="http://www.w3.org/2000/svg">
<path d="M2.00001 33.763L1.84401 33.847C1.55293 34.0057 1.21072 34.0423 0.892662 33.9488C0.5746 33.8552 0.30674 33.6391 0.148008 33.348C-0.0107239 33.0569 -0.0473257 32.7147 0.0462549 32.3967C0.139836 32.0786 0.355934 31.8107 0.647009 31.652C3.62901 30.025 6.31101 29.646 8.96601 30.136C11.551 30.614 14.028 31.905 16.623 33.419C21.375 36.19 26.914 35.45 30.018 33.233C30.1514 33.1344 30.3031 33.0634 30.4642 33.024C30.6253 32.9846 30.7926 32.9777 30.9564 33.0036C31.1202 33.0296 31.2772 33.0878 31.4183 33.1751C31.5594 33.2623 31.6817 33.3767 31.7781 33.5117C31.8745 33.6466 31.9431 33.7994 31.9799 33.9611C32.0166 34.1229 32.0208 34.2903 31.9923 34.4537C31.9637 34.617 31.9029 34.7731 31.8134 34.9127C31.7239 35.0524 31.6075 35.1728 31.471 35.267C27.576 38.05 20.975 38.851 15.364 35.578C12.777 34.069 10.63 32.986 8.51201 32.595C6.50501 32.225 4.44801 32.464 2.00001 33.763ZM28 30.983C28.199 30.92 28.394 30.852 28.587 30.78C29.6116 30.4046 30.5823 29.8959 31.474 29.267C31.6105 29.1728 31.7269 29.0524 31.8164 28.9127C31.9059 28.7731 31.9667 28.617 31.9953 28.4537C32.0238 28.2903 32.0196 28.1229 31.9829 27.9611C31.9461 27.7994 31.8775 27.6466 31.7811 27.5117C31.6847 27.3767 31.5624 27.2623 31.4213 27.1751C31.2803 27.0878 31.1232 27.0296 30.9594 27.0036C30.7956 26.9777 30.6283 26.9846 30.4672 27.024C30.306 27.0634 30.1544 27.1344 30.021 27.233C26.917 29.45 21.378 30.19 16.626 27.419C14.031 25.905 11.554 24.614 8.96801 24.136C6.31301 23.646 3.63201 24.026 0.648008 25.652C0.356933 25.8109 0.140889 26.0789 0.0474022 26.397C0.00111216 26.5545 -0.0136964 26.7197 0.00382307 26.8829C0.0213426 27.0462 0.0708465 27.2044 0.149508 27.3485C0.22817 27.4926 0.33445 27.6198 0.462278 27.7229C0.590107 27.826 0.736981 27.9028 0.894516 27.9491C1.21267 28.0426 1.55493 28.0059 1.84601 27.847C4.36301 26.474 6.46601 26.217 8.51401 26.595C10.632 26.986 12.78 28.069 15.366 29.578C19.536 32.011 24.253 32.192 28 30.983ZM16 9.08C11.59 9.08 7.79001 11.695 6.06601 15.459C7.19041 15.397 8.31818 15.4706 9.42501 15.678C12.477 16.242 15.283 17.74 17.888 19.259C20.991 21.069 24.466 21.004 26.919 20.067V20C26.919 13.97 22.032 9.08 16 9.08ZM5.09701 20.613C6.2248 20.3828 7.38686 20.3767 8.51701 20.595C8.92101 20.669 9.32701 20.769 9.73501 20.892C11.47 21.415 13.275 22.357 15.369 23.578C20.98 26.851 27.581 26.05 31.477 23.267C31.6135 23.1728 31.7299 23.0524 31.8194 22.9127C31.9089 22.7731 31.9697 22.617 31.9983 22.4537C32.0268 22.2903 32.0226 22.1229 31.9859 21.9611C31.9491 21.7994 31.8805 21.6466 31.7841 21.5117C31.6877 21.3767 31.5654 21.2623 31.4243 21.1751C31.2832 21.0878 31.1262 21.0296 30.9624 21.0036C30.7986 20.9777 30.6313 20.9846 30.4702 21.024C30.3091 21.0634 30.1574 21.1344 30.024 21.233C27.826 22.802 24.41 23.63 20.915 23C20.0691 22.8466 19.2402 22.6112 18.44 22.297C17.8144 22.0511 17.2087 21.7576 16.628 21.419C14.358 20.095 12.178 18.94 9.93501 18.352C9.49791 18.2376 9.05535 18.1452 8.60901 18.075C6.07101 17.683 3.49901 18.099 0.650008 19.652C0.358933 19.8109 0.142889 20.0789 0.049402 20.397C-0.0440849 20.7152 -0.00735655 21.0574 0.151508 21.3485C0.310373 21.6396 0.57836 21.8556 0.896516 21.9491C1.21467 22.0426 1.55693 22.0059 1.84801 21.847C3.00701 21.215 4.07801 20.819 5.09601 20.613H5.09701ZM16.074 40C16.0194 40.0034 15.9646 40.0034 15.91 40H16.074ZM3.60701 5.895L3.50601 5.805C3.25672 5.60499 2.9403 5.50805 2.62176 5.53413C2.30321 5.5602 2.00676 5.7073 1.79333 5.9452C1.57989 6.18309 1.46568 6.4937 1.47418 6.81319C1.48267 7.13269 1.61323 7.43679 1.83901 7.663L3.98701 9.811L4.08901 9.901C4.33849 10.0992 4.65422 10.1946 4.97169 10.1677C5.28916 10.1409 5.58441 9.99387 5.7971 9.75667C6.0098 9.51946 6.12389 9.20999 6.11607 8.89148C6.10824 8.57298 5.97909 8.26948 5.75501 8.043L3.60701 5.895ZM30.235 7.561C30.4351 7.31162 30.532 6.99505 30.5058 6.6764C30.4797 6.35774 30.3324 6.06123 30.0943 5.84785C29.8562 5.63447 29.5454 5.52043 29.2258 5.5292C28.9061 5.53797 28.602 5.66888 28.376 5.895L26.228 8.043L26.138 8.145C25.9399 8.39448 25.8444 8.71022 25.8713 9.02769C25.8981 9.34516 26.0451 9.6404 26.2823 9.8531C26.5195 10.0658 26.829 10.1799 27.1475 10.1721C27.466 10.1642 27.7695 10.0351 27.996 9.811L30.144 7.663L30.235 7.561ZM17.244 1.12C17.2126 0.800107 17.0591 0.504612 16.8155 0.294895C16.572 0.0851774 16.2569 -0.0226414 15.9359 -0.00616615C15.6149 0.0103091 15.3126 0.149812 15.0917 0.383366C14.8709 0.61692 14.7485 0.926571 14.75 1.248V4.286L14.757 4.413C14.7908 4.73086 14.945 5.02371 15.188 5.23135C15.4311 5.43899 15.7444 5.54564 16.0636 5.52937C16.3828 5.51311 16.6837 5.37517 16.9044 5.14391C17.125 4.91265 17.2487 4.60564 17.25 4.286V1.247L17.244 1.12Z" fill="black"/>
</svg>
