<svg width="20" height="14" viewBox="0 0 20 14" fill="none" xmlns="http://www.w3.org/2000/svg">
<path d="M18.693 12.33C19.0505 10.9965 19.0965 9.59862 18.8273 8.24452C18.5581 6.89042 17.9809 5.61641 17.1406 4.52104C16.3002 3.42568 15.2191 2.53834 13.9809 1.92768C12.7427 1.31701 11.3806 0.999388 10 0.999388C8.6194 0.999388 7.25731 1.31701 6.01911 1.92768C4.78092 2.53834 3.69981 3.42568 2.85943 4.52104C2.01905 5.61641 1.44194 6.89042 1.17274 8.24452C0.903549 9.59862 0.949485 10.9965 1.307 12.33" stroke="black" stroke-linecap="round"/>
<path d="M10.766 10.582C11.253 11.292 10.91 12.374 9.99998 12.999C9.08998 13.625 7.95698 13.557 7.46998 12.848C6.94998 12.092 5.15598 7.841 4.06698 5.211C3.86198 4.716 4.46698 4.3 4.85698 4.669C6.92098 6.629 10.247 9.826 10.766 10.582Z" stroke="black"/>
<path d="M10 1V3M3.63601 3.636L5.05001 5.05M16.364 3.636L14.95 5.05M18.693 12.33L16.762 11.812M1.30701 12.33L3.23801 11.812" stroke="black" stroke-linecap="round"/>
</svg>
