<svg width="26" height="26" viewBox="0 0 26 26" fill="none" xmlns="http://www.w3.org/2000/svg">
<path d="M21.2467 0.727008C18.6637 0.727008 16.5592 2.8315 16.5592 5.41451C16.5592 7.99752 18.6637 10.102 21.2467 10.102C23.8297 10.102 25.9342 7.99752 25.9342 5.41451C25.9342 2.8315 23.8297 0.727008 21.2467 0.727008ZM21.2467 6.97701C20.3825 6.97701 19.6842 6.27877 19.6842 5.41451C19.6842 4.55025 20.3825 3.85201 21.2467 3.85201C22.111 3.85201 22.8092 4.55025 22.8092 5.41451C22.8092 6.27877 22.111 6.97701 21.2467 6.97701ZM13.4342 6.19576C13.4342 3.1733 10.9879 0.727008 7.96548 0.727008C4.94302 0.727008 2.49673 3.1733 2.49673 6.19576V14.3256C1.53481 15.5317 0.934227 17.0356 0.934227 18.6958C0.934227 22.5776 4.08364 25.727 7.96548 25.727C11.8473 25.727 14.9967 22.5776 14.9967 18.6958C14.9967 17.0356 14.3961 15.5268 13.4342 14.3256V6.19576ZM7.96548 22.602C5.81216 22.602 4.05923 20.8491 4.05923 18.6958C4.05923 17.4506 4.65493 16.3081 5.62173 15.5805V6.19576C5.62173 4.90181 6.67153 3.85201 7.96548 3.85201C9.25942 3.85201 10.3092 4.90181 10.3092 6.19576V15.5805C11.276 16.3032 11.8717 17.4506 11.8717 18.6958C11.8717 20.8491 10.1188 22.602 7.96548 22.602ZM8.74673 16.4936V6.19576C8.74673 5.76607 8.39516 5.41451 7.96548 5.41451C7.53579 5.41451 7.18423 5.76607 7.18423 6.19576V16.4936C6.27602 16.8159 5.62173 17.6753 5.62173 18.6958C5.62173 19.9897 6.67153 21.0395 7.96548 21.0395C9.25942 21.0395 10.3092 19.9897 10.3092 18.6958C10.3092 17.6753 9.65493 16.8159 8.74673 16.4936Z" fill="black"/>
</svg>
