<svg width="26" height="21" viewBox="0 0 26 21" fill="none" xmlns="http://www.w3.org/2000/svg">
<path d="M23.403 12.9497C23.4108 12.8754 23.4342 12.8051 23.4342 12.7309C23.4342 11.352 22.3131 10.2309 20.9342 10.2309C20.442 10.2309 19.9889 10.3794 19.6022 10.6215C18.9147 9.10591 17.3952 8.04341 15.6217 8.04341C13.2077 8.04341 11.2467 10.0004 11.2467 12.4184C11.2467 12.5356 11.2741 12.645 11.2819 12.7583C9.34438 12.9028 7.80923 14.5044 7.80923 16.4809C7.80923 18.5512 9.48891 20.2309 11.5592 20.2309H22.1842C24.2545 20.2309 25.9342 18.5512 25.9342 16.4809C25.9342 14.8364 24.8717 13.4575 23.403 12.9497ZM6.59048 12.0669C4.88345 10.3598 4.88345 7.58638 6.59048 5.88326C8.29751 4.17623 11.0709 4.17623 12.778 5.88326C13.1569 6.26216 13.4381 6.69966 13.6491 7.1606C14.0319 7.01607 14.4342 6.92623 14.8483 6.86763L16.0124 3.39498C16.1686 2.93013 15.7272 2.49263 15.2624 2.64498L11.8327 3.78951L10.2116 0.555133C9.99673 0.117633 9.37173 0.117633 9.15298 0.555133L7.53579 3.78951L4.1022 2.64498C3.64126 2.49263 3.19985 2.93404 3.3522 3.39498L4.49673 6.82466L1.26235 8.44576C0.824852 8.66451 0.824852 9.2856 1.26235 9.50435L4.49673 11.1215L3.3522 14.5512C3.19595 15.0161 3.63735 15.4536 4.1022 15.3012L7.07485 14.3129C7.31313 13.8286 7.62173 13.3872 7.99673 13.0044C7.48501 12.7934 7.00454 12.4809 6.59048 12.0669ZM6.40298 8.9731C6.40298 10.5669 7.54751 11.895 9.05532 12.1879C9.36782 12.0044 9.69204 11.8442 10.0397 11.7309C10.2506 10.0004 11.2506 8.50826 12.6725 7.62935C12.1569 6.49263 11.0124 5.69576 9.68423 5.69576C7.87563 5.69576 6.40298 7.16451 6.40298 8.9731Z" fill="black"/>
</svg>
