<svg width="25" height="25" viewBox="0 0 25 25" fill="none" xmlns="http://www.w3.org/2000/svg">
<path d="M11.3297 11.122C10.7194 11.7324 10.7194 12.7216 11.3297 13.3315C11.9396 13.9419 12.9293 13.9419 13.5392 13.3315C14.1496 12.7211 14.1496 11.7319 13.5392 11.122C12.9289 10.5122 11.9396 10.5122 11.3297 11.122ZM12.4342 0.117633C5.74624 0.117633 0.324852 5.53902 0.324852 12.227C0.324852 18.915 5.74624 24.3364 12.4342 24.3364C19.1222 24.3364 24.5436 18.915 24.5436 12.227C24.5436 5.53902 19.1222 0.117633 12.4342 0.117633ZM18.5934 7.34664L15.3722 14.395C15.2164 14.7358 14.9431 15.0092 14.6022 15.165L7.55434 18.3862C6.74136 18.7578 5.90347 17.9199 6.27505 17.1069L9.49673 10.0586C9.65253 9.71769 9.92588 9.44434 10.2667 9.28853L17.3146 6.06734C18.1276 5.69625 18.965 6.53365 18.5934 7.34664Z" fill="black"/>
</svg>
