<svg width="26" height="23" viewBox="0 0 26 23" fill="none" xmlns="http://www.w3.org/2000/svg">
<path d="M8.58559 11.227H1.71548C1.28579 11.227 0.934227 11.5786 0.934227 12.0083V13.5708C0.934227 14.0004 1.28579 14.352 1.71548 14.352H8.65884C9.4352 14.352 10.1627 14.8842 10.2897 15.6508C10.4508 16.6274 9.69888 17.477 8.74673 17.477C8.05825 17.477 7.47231 17.0278 7.26235 16.4077C7.15981 16.1001 6.84243 15.9145 6.52016 15.9145H4.9186C4.44009 15.9145 4.05434 16.3442 4.14223 16.8129C4.56216 18.9663 6.46645 20.602 8.74184 20.602C11.5299 20.602 13.7565 18.1557 13.3903 15.2993C13.0924 12.936 10.9635 11.227 8.58559 11.227ZM1.71548 9.66451H18.1217C21.0368 9.66451 23.3366 6.98873 22.7018 3.96627C22.3307 2.19869 20.9 0.768024 19.1325 0.39693C16.4274 -0.169476 14.0006 1.61275 13.5221 4.08345C13.4293 4.5522 13.82 4.97701 14.2936 4.97701H15.8952C16.2223 4.97701 16.5348 4.79146 16.6374 4.48384C16.8473 3.86373 17.4333 3.41451 18.1217 3.41451C19.069 3.41451 19.8258 4.26412 19.6647 5.24068C19.5377 6.00728 18.8151 6.53951 18.0338 6.53951H1.71548C1.28579 6.53951 0.934227 6.89107 0.934227 7.32076V8.88326C0.934227 9.31295 1.28579 9.66451 1.71548 9.66451ZM20.4655 11.227H12.8336C13.776 12.0376 14.4547 13.1215 14.777 14.352H20.4655C21.7594 14.352 22.8092 15.4018 22.8092 16.6958C22.8092 17.9897 21.7594 19.0395 20.4655 19.0395C19.5915 19.0395 18.8395 18.5561 18.4342 17.8481C18.2926 17.604 18.0094 17.477 17.7262 17.477H16.0758C15.5436 17.477 15.1481 18.0044 15.3288 18.5073C16.1979 20.978 18.7711 22.6479 21.6471 22.0376C23.6588 21.6128 25.3141 20.0063 25.7829 17.9995C26.6178 14.4253 23.9079 11.227 20.4655 11.227Z" fill="black"/>
</svg>
